# ProBuilder 5.1.1
# https://unity3d.com/unity/features/worldbuilding/probuilder
# 2024-12-09 1:03:59 PM

mtllib ./PitOfDespair.mtl
o PitOfDespair

g Cylinder (3)
v -18.53203 -3.791503 -8.600149
v -18.53203 -3.090027 -8.600149
v -18.29021 -3.791503 -7.217449
v -18.29021 -3.090027 -7.217449
v -17.58886 -3.791503 -5.970096
v -17.58886 -3.090027 -5.970096
v -16.49663 -3.791503 -4.980192
v -16.49663 -3.090027 -4.980192
v -15.12043 -3.791503 -4.344634
v -15.12043 -3.090027 -4.344634
v -13.59497 -3.791503 -4.125636
v -13.59497 -3.090027 -4.125636
v -12.06958 -3.791503 -4.344634
v -12.06958 -3.090027 -4.344634
v -10.69358 -3.791503 -4.980191
v -10.69358 -3.090027 -4.980191
v -9.601654 -3.791503 -5.970096
v -9.601654 -3.090027 -5.970096
v -8.90069 -3.791503 -7.217448
v -8.90069 -3.090027 -7.217448
v -8.659303 -3.791503 -8.600149
v -8.659303 -3.090027 -8.600149
v -8.901122 -3.791503 -9.982849
v -8.901122 -3.090027 -9.982849
v -9.602475 -3.791503 -11.2302
v -9.602475 -3.090027 -11.2302
v -10.69471 -3.791503 -12.22011
v -10.69471 -3.090027 -12.22011
v -12.07091 -3.791503 -12.85566
v -12.07091 -3.090027 -12.85566
v -13.59637 -3.791503 -13.07466
v -13.59637 -3.090027 -13.07466
v -15.12175 -3.791503 -12.85566
v -15.12175 -3.090027 -12.85566
v -16.49776 -3.791503 -12.22011
v -16.49776 -3.090027 -12.22011
v -17.58968 -3.791503 -11.2302
v -17.58968 -3.090027 -11.2302
v -18.29065 -3.791503 -9.98285
v -18.29065 -3.090027 -9.98285
v -13.59567 -3.791503 -8.600149
v -13.59567 -3.090027 -8.600149

vt 2.468471 -0.8086017
vt 2.468471 0
vt 3.747783 -0.8086017
vt 3.747783 0
vt 0.3522688 -0.8086017
vt 0.3522688 0
vt 1.656428 -0.8086017
vt 1.656428 0
vt -1.681539 -0.8086017
vt -1.681539 0
vt -0.3381482 -0.8086017
vt -0.3381482 0
vt -3.391998 -0.8086017
vt -3.391998 0
vt -2.010488 -0.8086017
vt -2.010488 0
vt -4.698899 -0.8086017
vt -4.698899 0
vt -3.294349 -0.8086017
vt -3.294349 0
vt -5.612511 -0.8086017
vt -5.612511 0
vt -4.207961 -0.8086017
vt -4.207961 0
vt -6.158519 -0.8086017
vt -6.158519 0
vt -4.777009 -0.8086017
vt -4.777009 0
vt -6.328761 -0.8086017
vt -6.328761 0
vt -4.985369 -0.8086017
vt -4.985369 0
vt -6.06561 -0.8086017
vt -6.06561 0
vt -4.761451 -0.8086017
vt -4.761451 0
vt -5.296595 -0.8086017
vt -5.296595 0
vt -4.017283 -0.8086017
vt -4.017283 0
vt -2.737973 -0.8086017
vt -2.737973 0
vt -2.348541 -0.8086017
vt -2.348541 0
vt -1.044382 -0.8086017
vt -1.044382 0
vt -0.4923699 -0.8086017
vt -0.4923699 0
vt 0.8510206 -0.8086017
vt 0.8510206 0
vt 1.357121 -0.8086017
vt 1.357121 0
vt 2.73863 -0.8086017
vt 2.73863 0
vt 3.048879 -0.8086017
vt 3.048879 0
vt 4.45343 -0.8086017
vt 4.45343 0
vt 5.857981 -0.8086017
vt 5.857981 0
vt 5.430375 -0.8086017
vt 5.430375 0
vt 6.811882 -0.8086017
vt 6.811882 0
vt 5.815888 -0.8086017
vt 5.815888 0
vt 7.159279 -0.8086017
vt 7.159279 0
vt 5.453564 -0.8086017
vt 5.453564 0
vt 6.757723 -0.8086017
vt 6.757723 0
vt 4.286786 -0.8086017
vt 4.286786 0
vt 5.566097 -0.8086017
vt 5.566097 0
vt -8.998182 4.07815
vt -4.499091 4.07815
vt -8.777981 5.338367
vt 8.998182 4.07815
vt 4.499091 4.07815
vt 8.777981 5.338367
vt -8.138932 6.475226
vt 8.138932 6.475226
vt -7.143591 7.377442
vt 7.143591 7.377442
vt -5.889387 7.956701
vt 5.889387 7.956701
vt -4.499091 8.1563
vt 4.499091 8.1563
vt -3.108796 7.956701
vt 3.108796 7.956701
vt -1.854592 7.377442
vt 1.854592 7.377442
vt -0.8592496 6.475226
vt 0.8592496 6.475226
vt -0.2202015 5.338367
vt 0.2202015 5.338367
vt 0 4.078149
vt -0.220201 2.817932
vt 0.220201 2.817932
vt -0.8592496 1.681074
vt 0.8592496 1.681074
vt -1.854591 0.7788579
vt 1.854591 0.7788579
vt -3.108795 0.199599
vt 3.108795 0.199599
vt -4.499091 0
vt 4.499091 0
vt -5.889387 0.199599
vt 5.889387 0.199599
vt -7.14359 0.7788568
vt 7.14359 0.7788568
vt -8.138932 1.681073
vt 8.138932 1.681073
vt -8.777981 2.817932
vt 8.777981 2.817932

vn -1.097192 0 -1.555914E-07
vn -1.033391 0 0.3685282
vn -0.8576652 0 0.6841469
vn -0.6052812 0 0.9150363
vn -0.3110868 0 1.052118
vn 0.0001713075 0 1.097192
vn 0.3114155 0 1.052118
vn 0.6055669 0 0.9150366
vn 0.8578787 0 0.6841471
vn 1.033507 0 0.3685284
vn 1.097192 0 2.634728E-07
vn 1.033391 0 -0.3685282
vn 0.8576651 0 -0.6841469
vn 0.6052814 0 -0.9150362
vn 0.3110871 0 -1.052118
vn -0.0001713075 0 -1.097192
vn -0.3114154 0 -1.052118
vn -0.6055669 0 -0.9150366
vn -0.8578787 0 -0.6841471
vn -1.033506 0 -0.3685285
vn 0 -0.867518 0
vn 0 0.867518 0

usemtl Platform
f 1/77/21 41/78/21 3/79/21
f 3/79/21 41/78/21 5/83/21
f 5/83/21 41/78/21 7/85/21
f 7/85/21 41/78/21 9/87/21
f 9/87/21 41/78/21 11/89/21
f 11/89/21 41/78/21 13/91/21
f 13/91/21 41/78/21 15/93/21
f 15/93/21 41/78/21 17/95/21
f 17/95/21 41/78/21 19/97/21
f 19/97/21 41/78/21 21/99/21
f 21/99/21 41/78/21 23/100/21
f 23/100/21 41/78/21 25/102/21
f 25/102/21 41/78/21 27/104/21
f 27/104/21 41/78/21 29/106/21
f 29/106/21 41/78/21 31/108/21
f 31/108/21 41/78/21 33/110/21
f 33/110/21 41/78/21 35/112/21
f 35/112/21 41/78/21 37/114/21
f 37/114/21 41/78/21 39/116/21
f 39/116/21 41/78/21 1/77/21
f 4/82/22 42/81/22 2/80/22
f 6/84/22 42/81/22 4/82/22
f 8/86/22 42/81/22 6/84/22
f 10/88/22 42/81/22 8/86/22
f 12/90/22 42/81/22 10/88/22
f 14/92/22 42/81/22 12/90/22
f 16/94/22 42/81/22 14/92/22
f 18/96/22 42/81/22 16/94/22
f 20/98/22 42/81/22 18/96/22
f 22/99/22 42/81/22 20/98/22
f 24/101/22 42/81/22 22/99/22
f 26/103/22 42/81/22 24/101/22
f 28/105/22 42/81/22 26/103/22
f 30/107/22 42/81/22 28/105/22
f 32/109/22 42/81/22 30/107/22
f 34/111/22 42/81/22 32/109/22
f 36/113/22 42/81/22 34/111/22
f 38/115/22 42/81/22 36/113/22
f 40/117/22 42/81/22 38/115/22
f 2/80/22 42/81/22 40/117/22
f 4/4/2 2/2/1 1/1/1
f 1/1/1 3/3/2 4/4/2
f 6/8/3 4/6/2 3/5/2
f 3/5/2 5/7/3 6/8/3
f 8/12/4 6/10/3 5/9/3
f 5/9/3 7/11/4 8/12/4
f 10/16/5 8/14/4 7/13/4
f 7/13/4 9/15/5 10/16/5
f 12/20/6 10/18/5 9/17/5
f 9/17/5 11/19/6 12/20/6
f 14/24/7 12/22/6 11/21/6
f 11/21/6 13/23/7 14/24/7
f 16/28/8 14/26/7 13/25/7
f 13/25/7 15/27/8 16/28/8
f 18/32/9 16/30/8 15/29/8
f 15/29/8 17/31/9 18/32/9
f 20/36/10 18/34/9 17/33/9
f 17/33/9 19/35/10 20/36/10
f 22/40/11 20/38/10 19/37/10
f 19/37/10 21/39/11 22/40/11
f 24/42/12 22/40/11 21/39/11
f 21/39/11 23/41/12 24/42/12
f 26/46/13 24/44/12 23/43/12
f 23/43/12 25/45/13 26/46/13
f 28/50/14 26/48/13 25/47/13
f 25/47/13 27/49/14 28/50/14
f 30/54/15 28/52/14 27/51/14
f 27/51/14 29/53/15 30/54/15
f 32/58/16 30/56/15 29/55/15
f 29/55/15 31/57/16 32/58/16
f 34/60/17 32/58/16 31/57/16
f 31/57/16 33/59/17 34/60/17
f 36/64/18 34/62/17 33/61/17
f 33/61/17 35/63/18 36/64/18
f 38/68/19 36/66/18 35/65/18
f 35/65/18 37/67/19 38/68/19
f 40/72/20 38/70/19 37/69/19
f 37/69/19 39/71/20 40/72/20
f 2/76/1 40/74/20 39/73/20
f 39/73/20 1/75/1 2/76/1

